<?xml version="1.0" encoding="UTF-8" standalone="no"?><!DOCTYPE svg PUBLIC "-//W3C//DTD SVG 1.1//EN" "http://www.w3.org/Graphics/SVG/1.1/DTD/svg11.dtd"><svg width="100%" height="100%" viewBox="0 0 1825 432" version="1.1" xmlns="http://www.w3.org/2000/svg" xmlns:xlink="http://www.w3.org/1999/xlink" xml:space="preserve" xmlns:serif="http://www.serif.com/" style="fill-rule:evenodd;clip-rule:evenodd;stroke-linejoin:round;stroke-miterlimit:2;"><rect id="Plugin_Logo_dark_outlined_v1" x="0.063" y="0" width="1824.9" height="431.2" style="fill:none;"/><clipPath id="_clip1"><rect x="0.063" y="0" width="1824.9" height="431.2"/></clipPath><g clip-path="url(#_clip1)"><g><path d="M1134.01,290.869l-0.031,0l-68.057,-0.045c-10.95,-0.007 -21.027,-3.736 -29.033,-9.988c-0.404,0.314 -0.813,0.623 -1.227,0.924c-3.946,2.876 -8.338,5.14 -13.026,6.687l-7.247,1.77c-2.472,0.4 -4.998,0.607 -7.561,0.607l-18.934,0c-12.789,0 -24.678,-5.143 -33.338,-13.759c-1.782,1.773 -3.7,3.398 -5.734,4.862c-7.855,5.652 -17.445,8.897 -27.604,8.897l-18.934,0c-6.597,0 -12.952,-1.368 -18.747,-3.873l-7.577,2.665l-10.621,1.208l-15.575,0c-18.708,0 -35.654,-11.032 -43.21,-28.131l-3.106,-7.03l-3.107,7.03c-7.556,17.099 -24.501,28.131 -43.21,28.131l-15.473,0c-1.248,0 -2.489,-0.049 -3.71,-0.146c-1.232,0.097 -2.473,0.146 -3.721,0.146l-17.102,0c-12.8,0 -24.875,-5.176 -33.644,-14.066c-8.566,8.683 -20.475,14.066 -33.642,14.066l-14.659,0c-12.154,0 -23.237,-4.587 -31.607,-12.122c-3.877,3.489 -8.337,6.343 -13.215,8.404l-8.898,2.76c-3.067,0.627 -6.242,0.958 -9.495,0.958l-14.556,0c-14.615,0 -27.68,-6.631 -36.344,-17.047c-1.339,1.003 -2.717,1.97 -4.133,2.903c-8.273,5.446 -17.495,9.606 -27.734,12.329c-9.108,2.422 -18.367,3.632 -27.776,3.632c-10.347,-0 -19.906,-1.225 -28.7,-3.482c-9.365,-2.403 -17.745,-5.77 -25.212,-9.921c-8.301,-4.614 -15.465,-10.112 -21.589,-16.366c-6.281,-6.416 -11.311,-13.284 -15.219,-20.509c-9.751,-18.025 -6.596,-39.762 6.661,-54.259c-5.126,-9.666 -8.169,-20.961 -8.169,-34.128c0,-14.291 3.611,-26.891 10.146,-37.979c5.855,-9.936 13.548,-18.27 23.115,-24.968c8.18,-5.726 17.41,-10.129 27.776,-13.024c9.155,-2.556 18.467,-3.831 27.934,-3.831c9.999,0 19.15,1.25 27.482,3.508c3.046,0.826 5.976,1.758 8.792,2.788c6.102,-2.873 12.92,-4.479 20.114,-4.479l100.472,0c3.459,0 6.83,0.375 10.077,1.082c3.247,-0.707 6.619,-1.082 10.078,-1.082l52.73,0c11.338,0 21.649,1.568 30.975,4.397c11.297,3.426 20.951,8.58 29.148,15.104c2.123,1.69 4.136,3.461 6.038,5.313l5.281,-8.351c2.944,-3.427 6.351,-6.399 10.106,-8.838c3.755,-2.438 7.857,-4.344 12.186,-5.64l13.558,-1.985l16.491,0l13.55,1.982c4.327,1.295 8.427,3.198 12.18,5.634l0.275,0.18c7.62,-5.02 16.638,-7.796 26.006,-7.796l15.269,0c10.324,0 20.049,3.349 27.965,9.159c2.322,1.705 4.488,3.621 6.468,5.726c1.827,-1.832 3.799,-3.508 5.895,-5.013c3.924,-2.818 8.279,-5.035 12.922,-6.548l14.648,-2.325l15.371,0c12.851,0 24.794,5.194 33.465,13.886c1.98,-2.105 4.145,-4.021 6.467,-5.726c7.916,-5.81 17.642,-9.159 27.965,-9.159l15.371,0l9.613,1.028c3.171,-0.672 6.459,-1.028 9.83,-1.028l55.335,0c11.818,0 22.434,1.896 31.916,5.251c3.04,1.076 5.948,2.282 8.729,3.611c1.685,-1.21 3.453,-2.312 5.294,-3.296l6.947,-3.022c4.804,-1.645 9.956,-2.544 15.318,-2.544l23.899,0c3.189,0 6.304,0.319 9.315,0.922l7.135,2.168l7.135,-2.168c3.011,-0.603 6.126,-0.922 9.315,-0.922l22.519,0c13.388,0 26.108,5.673 35.038,15.543c8.644,-9.546 21.14,-15.543 35.039,-15.543l23.575,0c3.252,0 6.427,0.331 9.494,0.958l8.899,2.76c5.647,2.387 10.735,5.837 15.007,10.104c0.348,0.347 0.69,0.701 1.027,1.059c2.509,-2.667 5.312,-5.027 8.348,-7.035c3.788,-2.506 7.937,-4.467 12.324,-5.801l13.757,-2.045l26.587,0c13.279,0 25.658,5.556 34.428,14.879c0.336,-0.358 0.678,-0.71 1.026,-1.057c8.547,-8.54 20.356,-13.822 33.399,-13.822l54.725,0c11.654,0 22.364,1.707 32.173,4.843l0.302,0.098c0.446,-0.222 0.895,-0.436 1.348,-0.644l9.533,-3.193c3.298,-0.726 6.702,-1.104 10.161,-1.104l26.794,0l11.96,1.537c3.856,1.009 7.556,2.498 11.014,4.421c3.303,1.837 6.385,4.069 9.173,6.657c2.791,-2.591 5.877,-4.826 9.184,-6.664c3.457,-1.921 7.155,-3.408 11.009,-4.415l11.953,-1.536l26.75,0l12.567,1.7c4.038,1.114 7.895,2.755 11.472,4.868c3.577,2.113 6.876,4.698 9.799,7.696l7.548,10.181c8.302,15.078 7.73,33.475 -1.491,48.01l-39.852,62.812l-0,32.376c-0,3.249 -0.332,6.421 -0.96,9.485l-2.762,8.891c-2.389,5.642 -5.842,10.725 -10.113,14.992c-8.548,8.54 -20.356,13.822 -33.399,13.822l-23.452,0c-9.489,0 -18.324,-2.795 -25.726,-7.607c-0.639,0.415 -1.288,0.813 -1.947,1.196c-3.547,2.065 -7.364,3.667 -11.357,4.753l-12.412,1.658l-26.791,0c-9.714,0 -19.004,-2.98 -26.75,-8.296c-7.606,5.233 -16.823,8.296 -26.757,8.296l-23.696,0c-2.981,0 -5.897,-0.278 -8.724,-0.807c-2.843,0.532 -5.755,0.807 -8.703,0.807l-25.408,0c-15.947,0 -30.579,-8.011 -39.232,-20.907c-8.653,12.896 -23.284,20.907 -39.233,20.907l-25.245,0c-3.004,0 -5.971,-0.286 -8.865,-0.838c-2.878,0.549 -5.848,0.838 -8.886,0.838l-22.312,0l-10.34,-1.144c-3.363,-0.754 -6.624,-1.871 -9.726,-3.326c-3.103,-1.454 -6.047,-3.246 -8.776,-5.349l-6.123,-5.898c-8.648,9.647 -21.212,15.717 -35.194,15.717l-23.7,0c-3.189,0 -6.304,-0.318 -9.315,-0.922l-7.135,-2.168l-7.135,2.168c-3.011,0.604 -6.126,0.922 -9.315,0.922l-23.899,0c-8.178,0 -15.87,-2.075 -22.576,-5.727l-0.563,0.208c-9.849,3.602 -20.612,5.564 -32.343,5.564c13.043,0 0,0 0,0Z" style="fill:#fff;"/><ellipse cx="348.413" cy="175.576" rx="186.153" ry="62.733" style="fill:#fff;"/><path d="M348.413,89.221c77.618,0 144.78,15.992 178.233,37.728c21.666,14.078 31.542,31.685 31.542,48.627c0,16.942 -9.876,34.549 -31.542,48.627c-33.453,21.736 -100.615,37.728 -178.233,37.728c-77.618,-0 -144.78,-15.992 -178.233,-37.728c-21.667,-14.078 -31.542,-31.685 -31.542,-48.627c-0,-16.942 9.875,-34.549 31.542,-48.627c33.453,-21.736 100.615,-37.728 178.233,-37.728Zm-0,23.622c-102.741,0 -186.153,28.11 -186.153,62.733c-0,34.623 83.412,62.733 186.153,62.733c102.741,-0 186.153,-28.11 186.153,-62.733c0,-34.623 -83.412,-62.733 -186.153,-62.733Z" style="fill:#fff;"/><path d="M329.206,166.728c47.354,-19.509 96.525,-9.362 109.737,22.647c13.212,32.008 -14.507,73.834 -61.861,93.343c-47.354,19.51 -96.526,9.362 -109.738,-22.646c-13.211,-32.009 14.508,-73.835 61.862,-93.344Z" style="fill:#fff;"/><path d="M320.207,144.887c34.575,-14.244 69.986,-14.78 96.223,-5.089c20.99,7.752 36.631,21.868 44.348,40.564c7.72,18.704 6.582,39.74 -2.84,60.029c-11.777,25.356 -37.276,49.921 -71.858,64.168c-34.574,14.245 -69.986,14.78 -96.223,5.09c-20.989,-7.753 -36.631,-21.869 -44.348,-40.565c-7.72,-18.704 -6.582,-39.74 2.841,-60.029c11.776,-25.355 37.276,-49.921 71.857,-64.168Zm8.999,21.841c-47.354,19.509 -75.073,61.335 -61.862,93.344c13.212,32.008 62.384,42.156 109.738,22.646c47.354,-19.509 75.073,-61.335 61.861,-93.343c-13.212,-32.009 -62.383,-42.156 -109.737,-22.647Z" style="fill:#fff;"/><path d="M16.483,154.814c-0.836,-2.009 -1.906,-4.513 -3.193,-7.304c-8.495,-18.432 -13.227,-38.922 -13.227,-60.542c-0,-10.057 1.012,-19.878 2.987,-29.371c0.158,-0.761 0.351,-1.505 0.578,-2.232l0.535,-2.293c0.365,-1.563 0.888,-3.085 1.563,-4.542l6.372,-13.77c1.063,-2.297 2.489,-4.409 4.224,-6.254l10.413,-11.073c1.73,-1.84 3.744,-3.39 5.966,-4.592l13.562,-7.339c2.284,-1.235 4.756,-2.086 7.317,-2.518l15.748,-2.655c2.084,-0.351 4.205,-0.422 6.308,-0.209l9.633,0.974c1.569,0.159 3.119,0.474 4.626,0.942l9.052,2.808c1.476,0.458 2.903,1.06 4.262,1.796l8.159,4.425c1.333,0.722 2.593,1.572 3.763,2.536l7.072,5.829c0.854,0.704 1.657,1.467 2.404,2.283c12.547,-6.074 26.097,-10.389 40.328,-12.635c6.608,-1.064 13.356,-1.647 20.241,-1.786c0.399,-0.008 0.798,-0.012 1.197,-0.012l1.361,-0c4.807,-0 9.615,0.237 14.328,0.708c15.151,1.514 28.94,8.785 38.703,20.015c17.701,5.598 34.347,14.583 48.883,26.643c0.738,0.611 1.46,1.241 2.167,1.888c4.198,3.843 8.292,7.83 12.274,11.951c16.89,17.469 31.796,37.402 44.137,59.647c24.145,43.521 35.595,90.697 35.613,137.204c-0,1.028 -0.049,4.886 -0.097,5.786c-0.325,4.233 -0.397,8.199 -2.303,14.113c-0.589,1.828 -0.859,3.593 -1.596,5.287l-4.501,10.338c-0.387,0.888 -0.824,1.743 -1.307,2.563c-0.557,0.945 -1.141,1.815 -1.745,2.614l-6.879,8.967c-1.13,1.473 -2.43,2.807 -3.873,3.976l-8.747,7.083c-0.804,0.651 -1.65,1.249 -2.533,1.789c-1.009,0.618 -3.995,2.325 -4.839,2.795c0,0 -0.073,0.041 -0.145,0.081c-0.634,0.347 -1.135,0.623 -1.525,0.837c-40.362,22.011 -86.637,34.544 -135.818,34.544c-25.456,-0 -50.129,-3.364 -73.606,-9.654c-5.54,-1.481 -11.016,-3.128 -16.415,-4.933c-0.911,-0.305 -1.813,-0.631 -2.708,-0.979c-17.561,-6.841 -33.464,-17 -46.925,-29.712c-16.938,-3.241 -29.1,-13.29 -38.372,-27.226c-0.499,-0.76 -0.988,-1.52 -1.439,-2.248c-5.459,-8.644 -10.035,-17.889 -13.573,-27.629c-5.665,-15.473 -8.767,-32.205 -8.767,-49.594c0,-7.913 0.661,-15.736 1.872,-23.276c2.915,-23.393 8.486,-36.047 8.485,-36.044Z" style="fill:#fff;"/></g><g><g><path d="M413.255,219.925l11.096,-7.176c3.732,6.358 8.601,11.37 14.607,15.034c6.006,3.663 13.726,5.495 23.159,5.495c3.936,0 7.651,-0.469 11.146,-1.408c3.495,-0.938 6.566,-2.286 9.213,-4.042c2.646,-1.756 4.75,-3.921 6.311,-6.495c1.561,-2.574 2.341,-5.466 2.341,-8.675c0,-3.089 -0.712,-5.768 -2.137,-8.039c-1.426,-2.271 -3.512,-4.315 -6.261,-6.132c-2.748,-1.817 -6.175,-3.513 -10.281,-5.087c-4.106,-1.575 -8.873,-3.21 -14.302,-4.905c-5.701,-1.696 -11.028,-3.513 -15.982,-5.451c-4.954,-1.938 -9.264,-4.224 -12.928,-6.858c-3.665,-2.634 -6.549,-5.738 -8.653,-9.311c-2.104,-3.573 -3.155,-7.873 -3.155,-12.899c-0,-5.269 1.204,-9.947 3.613,-14.035c2.409,-4.088 5.582,-7.509 9.518,-10.265c3.936,-2.755 8.398,-4.829 13.386,-6.222c4.988,-1.393 10.061,-2.09 15.219,-2.09c5.496,0 10.535,0.621 15.116,1.863c4.581,1.241 8.687,2.891 12.317,4.95c3.631,2.059 6.804,4.436 9.518,7.131c2.715,2.695 4.954,5.466 6.719,8.312l-11.3,7.631c-2.986,-4.724 -7.244,-8.857 -12.775,-12.4c-5.531,-3.543 -12.063,-5.314 -19.595,-5.314c-3.461,-0 -6.821,0.439 -10.078,1.317c-3.258,0.878 -6.142,2.165 -8.653,3.861c-2.511,1.695 -4.53,3.785 -6.057,6.268c-1.527,2.483 -2.29,5.359 -2.29,8.629c0,3.331 0.882,6.193 2.647,8.585c1.764,2.392 4.038,4.421 6.82,6.086c2.782,1.665 5.921,3.104 9.416,4.315c3.495,1.211 6.939,2.362 10.332,3.452c6.854,2.119 13.03,4.269 18.527,6.449c5.497,2.18 10.163,4.648 13.997,7.404c3.834,2.755 6.786,5.934 8.856,9.538c2.07,3.603 3.105,7.948 3.105,13.035c-0,5.511 -1.273,10.341 -3.818,14.489c-2.544,4.148 -5.887,7.585 -10.026,10.31c-4.14,2.725 -8.772,4.769 -13.895,6.132c-5.124,1.362 -10.333,2.044 -15.626,2.044c-6.108,-0 -11.757,-0.666 -16.949,-1.999c-5.191,-1.332 -9.857,-3.149 -13.997,-5.45c-4.139,-2.301 -7.736,-5.011 -10.79,-8.13c-3.054,-3.119 -5.531,-6.435 -7.431,-9.947Z" style="fill:#202020;"/><path d="M572.965,135.445l0,108.189l-14.556,-0l-0,-108.189l-42.856,-0l-0,-12.264l100.472,0l-0,12.264l-43.06,-0Z" style="fill:#202020;"/><path d="M703.116,191.1l32.111,52.534l-17.102,-0l-30.351,-50.87l-36.935,0l-0,50.87l-14.659,-0l0,-120.453l52.73,0c6.311,0 12.063,0.788 17.254,2.362c5.192,1.575 9.671,3.861 13.437,6.858c3.767,2.998 6.668,6.632 8.704,10.901c2.036,4.27 3.054,9.099 3.054,14.489c-0,8.781 -2.817,16.169 -8.449,22.165c-4.98,5.3 -11.578,9.015 -19.794,11.144Zm-52.277,-10.236l37.359,0c8.89,0 15.761,-2.15 20.613,-6.449c4.852,-4.3 7.278,-9.841 7.278,-16.624c0,-6.904 -2.426,-12.415 -7.278,-16.533c-4.852,-4.118 -11.723,-6.177 -20.613,-6.177l-37.359,0l-0,45.783Z" style="fill:#202020;"/><path d="M850.764,243.634l-46.316,-104.813l-46.317,104.813l-15.473,-0l53.544,-120.453l16.491,0l53.646,120.453l-15.575,-0Z" style="fill:#202020;"/><path d="M912.889,228.148l34.982,-103.968l15.371,0l35.029,103.816l32.868,-104.815l15.371,0l-38.682,120.453l-18.934,-0l-33.437,-99.371l-33.239,99.371l-18.934,-0l-38.58,-120.453l15.269,0l32.916,104.967Z" style="fill:#202020;"/><path d="M1065.95,243.634l-0,-120.453l55.335,0c5.972,0 11.354,0.848 16.146,2.544c4.792,1.695 8.877,4.057 12.257,7.085c3.379,3.028 5.978,6.565 7.797,10.61c1.818,4.045 2.727,8.406 2.727,13.082c0,2.786 -0.393,5.511 -1.18,8.176c-0.787,2.664 -1.954,5.165 -3.502,7.502c-1.548,2.338 -3.455,4.457 -5.721,6.359c-0.372,0.312 -0.723,0.665 -0.723,0.665c-0,0 2.865,1.097 5.738,2.339c5.586,2.417 9.994,5.766 13.224,10.05c3.936,5.22 5.904,11.088 5.904,17.604c0,4.771 -0.997,9.276 -2.992,13.515c-1.994,4.239 -4.743,7.897 -8.245,10.975c-3.503,3.077 -7.704,5.512 -12.604,7.304c-4.9,1.792 -10.268,2.688 -16.104,2.688l-68.057,-0.045Zm23.9,-52.179l-0,33.177l41.634,0.045c2.77,-0 5.281,-0.437 7.533,-1.309c2.252,-0.873 4.193,-2.072 5.822,-3.598c1.628,-1.526 2.878,-3.301 3.747,-5.323c0.87,-2.022 1.304,-4.172 1.304,-6.451c0,-2.227 -0.462,-4.328 -1.385,-6.303c-0.924,-1.975 -2.193,-3.707 -3.808,-5.196c-1.615,-1.49 -3.556,-2.695 -5.823,-3.616c-2.267,-0.92 -4.73,-1.381 -7.39,-1.381l-41.634,-0.045Zm-0,-49.49l-0,31.615c0.086,0.019 28.992,-0 28.992,-0c2.634,-0 5.01,-0.412 7.127,-1.236c2.118,-0.824 3.923,-1.957 5.416,-3.398c1.493,-1.441 2.674,-3.101 3.542,-4.978c0.869,-1.877 1.303,-3.881 1.303,-6.012c0,-2.012 -0.407,-3.975 -1.222,-5.888c-0.814,-1.913 -1.981,-3.615 -3.502,-5.105c-1.52,-1.491 -3.373,-2.696 -5.557,-3.617c-2.185,-0.921 -4.608,-1.381 -7.269,-1.381l-28.83,0Z" style="fill:#202020;"/><rect x="1189.49" y="123.181" width="23.9" height="120.453" style="fill:#202020;fill-rule:nonzero;"/><path d="M1338.89,208.504l-0,-85.323l23.575,0l-0,120.453l-22.312,-0l-70.159,-84.364l-0,84.364l-23.7,-0l0,-120.453l22.519,0l70.077,85.323Z" style="fill:#202020;"/><path d="M1483.92,243.634l-39.287,-95.721l-39.178,95.721l-25.245,-0l51.105,-120.453l26.587,0l51.426,120.453l-25.408,-0Z" style="fill:#202020;"/><path d="M1601.05,193.969l29.7,49.665l-26.791,-0l-27.122,-46.439l-26.385,0l0,46.439l-23.696,-0l0,-120.453l54.725,0c6.434,0 12.359,0.866 17.774,2.598c5.416,1.731 10.104,4.202 14.067,7.412c3.963,3.209 7.044,7.085 9.243,11.627c2.199,4.542 3.299,9.623 3.299,15.244c-0,8.454 -2.525,15.781 -7.575,21.983c-4.378,5.378 -10.125,9.353 -17.239,11.924Zm-50.598,-15.521l29.034,0c6.759,0 12.093,-1.75 16.003,-5.25c3.909,-3.5 5.864,-7.903 5.864,-13.21c0,-5.28 -1.955,-9.549 -5.864,-12.807c-3.91,-3.258 -9.244,-4.887 -16.003,-4.887l-29.034,0l0,36.154Z" style="fill:#202020;"/><path d="M1682.19,243.634l0,-46.073l-47.194,-74.38l26.794,0l32.126,51.779l32.167,-51.779l26.75,0l-47.191,74.38l-0,46.073l-23.452,-0Z" style="fill:#202020;"/></g><g id="Final"><path d="M86.146,158.115c0.036,-0.042 -0.037,0.042 -0,-0c-0.121,-0.89 -0.299,-3.856 -0.299,-4.437c-0,-0.249 0.136,-3.091 0.218,-3.799c-0.263,-0.247 -2.883,-2.817 -3.892,-3.892c-2.296,-2.446 -4.45,-5.027 -6.449,-7.729c-3.471,-4.69 -6.475,-9.746 -8.944,-15.098c-5.031,-10.912 -7.832,-23.056 -7.832,-35.85c-0,-5.954 0.608,-11.767 1.765,-17.381c0.074,-0.482 0.176,-0.955 0.304,-1.417c1.466,-5.297 6.328,-9.191 12.092,-9.191c6.924,0 12.545,5.617 12.545,12.536c0,0.775 -0.069,1.534 -0.205,2.27c-0.02,0.106 -0.134,0.637 -0.173,0.795c-0.854,3.774 -1.304,7.699 -1.304,11.729c-0,5.779 0.926,11.343 2.638,16.552c0.392,1.191 0.825,2.364 1.297,3.516c1.304,3.184 2.909,6.213 4.78,9.053c2.439,3.704 5.331,7.084 8.595,10.064c0,-0 2.331,-1.336 3.512,-1.888c0.665,-0.311 1.342,-0.6 2.029,-0.866c0.016,-0.042 0.121,-0.328 0.158,-0.429c5.524,-14.888 15.064,-27.834 27.303,-37.522c11.317,-8.959 24.942,-15.131 39.832,-17.476c3.955,-0.623 7.998,-0.975 12.112,-1.038c-0,-0 0.903,-0.011 1.346,-0.011c2.849,0 5.667,0.139 8.446,0.411c2.409,4.562 3.773,9.76 3.773,15.273c-0,5.2 -1.213,10.118 -3.372,14.488c-2.619,5.303 -6.631,9.798 -11.556,13.007c-0.005,0.004 -13.566,9.487 -13.566,9.487c2.23,0.362 4.447,0.778 6.64,1.245c6.544,1.394 12.919,3.248 19.088,5.527c-1.203,4.549 -2.996,8.859 -5.293,12.843c-0.16,0.278 -0.323,0.555 -0.488,0.83c-8.525,14.194 -23.504,24.084 -40.869,25.606c-0.353,0.031 -3.473,0.205 -4.692,0.205c-2.691,-0 -5.335,-0.201 -7.918,-0.587c1.971,2.554 3.715,5.291 5.201,8.183c0.28,0.545 0.551,1.096 0.812,1.651c3.219,6.841 5.019,14.479 5.019,22.533c-0,10.027 -2.79,19.408 -7.634,27.41c-2.132,3.521 -4.662,6.775 -7.527,9.699c-0.377,0.385 -1.186,1.174 -1.186,1.174c-4.986,-4.287 -9.699,-8.959 -14.091,-14.003l-0.004,-0.004c-1.16,-1.333 -2.299,-2.692 -3.413,-4.077c-0.3,-0.369 -0.597,-0.74 -0.893,-1.112l-1.726,16.448c-0.421,5.861 -2.41,11.546 -5.782,16.407l-0.008,0.012c-2.19,3.154 -4.962,5.96 -8.265,8.24c-5.115,3.553 -11.288,5.69 -17.948,5.84l-0.01,-0.015l-0.012,0.001c-0.665,-0.963 -1.312,-1.943 -1.941,-2.94c-3.28,-5.164 -6.024,-10.7 -8.153,-16.531c-3.347,-9.171 -5.174,-19.07 -5.174,-29.393c-0,-4.712 0.38,-9.337 1.113,-13.844c2.608,-16.051 9.786,-30.741 20.001,-42.505Z" style="fill:#404040;"/><path d="M134.016,294.909c-13.698,-5.839 -25.569,-15.133 -34.52,-26.783c1.494,-0.793 2.933,-1.671 4.313,-2.629c4.285,-2.959 7.667,-6.42 10.662,-10.564c3.373,-4.863 5.749,-10.506 6.87,-16.258c1.558,1.469 3.148,2.897 4.764,4.287l4.655,4.002l2.107,1.84l6.407,-6.278c0.153,-0.149 0.934,-0.914 1.318,-1.306c3.388,-3.458 6.378,-7.305 8.899,-11.468c5.735,-9.472 9.039,-20.575 9.039,-32.444c0,-7.983 -1.496,-15.62 -4.225,-22.645c19.233,-2.643 35.705,-13.992 45.285,-29.941c0.196,-0.326 0.388,-0.653 0.578,-0.982c2.719,-4.719 4.842,-9.824 6.267,-15.211l2.26,-8.542l-8.293,-3.064c-2.001,-0.739 -4.021,-1.436 -6.062,-2.085c4.49,-3.768 8.186,-8.45 10.807,-13.755c2.8,-5.669 4.377,-12.048 4.377,-18.793c0,-0.263 -0.002,-0.526 -0.007,-0.788c15.404,2.307 30.08,8.761 42.255,18.862c3.314,3.037 6.547,6.183 9.693,9.437c13.381,13.842 25.185,29.64 34.962,47.266c2.659,4.793 5.124,9.642 7.397,14.536l-35.13,-20.678c-0,0 -4.108,-2.093 -9.601,-3.674c-3.285,-0.945 -6.786,-1.523 -10.218,-1.812c-10.115,-0.764 -20.427,2.064 -29.108,7.829c-5.129,3.406 -9.692,7.888 -13.294,13.183l-3.098,4.849l22.106,13.012l3.028,-5.138c5.829,-7.444 15.854,-10.193 24.347,-6.677l64.893,38.197c4.625,18.174 6.882,36.639 6.889,54.98c0,0.472 0.009,2.246 -0.015,2.658c-0.115,1.977 -0.697,3.907 -1.697,5.619c-1.014,1.704 -2.421,3.149 -4.095,4.208c-0.349,0.221 -1.906,1.073 -2.32,1.301c-5.379,2.977 -10.893,5.74 -16.531,8.278c0.306,-4.961 -0.163,-9.984 -1.431,-14.886c-3.173,-12.259 -11.089,-22.756 -22.007,-29.183l-44.825,-26.384c-10.918,-6.427 -23.943,-8.256 -36.211,-5.086c-12.267,3.17 -22.772,11.081 -29.203,21.991l-26.404,44.792c-2.926,4.963 -4.899,10.362 -5.883,15.927Zm134.341,4.289c-19.277,5.382 -39.596,8.26 -60.582,8.26c-16.416,0 -32.423,-1.761 -47.844,-5.104c0.141,-3.448 1.125,-6.841 2.91,-9.868l26.403,-44.793c2.848,-4.829 7.498,-8.331 12.929,-9.735c5.431,-1.403 11.197,-0.594 16.031,2.251l44.825,26.385c4.833,2.845 8.337,7.492 9.742,12.919c1.404,5.427 0.594,11.189 -2.253,16.019l-2.161,3.666Z" style="fill:#202020;"/></g></g><g><path d="M1808.83,201.727l16.025,152.452c1.106,10.517 -6.536,19.954 -17.053,21.059l-531.483,55.856c-10.518,1.105 -19.954,-6.536 -21.06,-17.054l-16.025,-152.452c-1.105,-10.517 6.536,-19.953 17.054,-21.059l531.483,-55.856c10.517,-1.105 19.954,6.537 21.059,17.054Z" style="fill:#fff;"/><path d="M1793.43,214.413l13.724,130.56c0.946,9.007 -5.598,17.088 -14.606,18.035l-503.847,52.951c-9.008,0.947 -17.091,-5.597 -18.037,-14.604l-13.724,-130.56c-0.947,-9.008 5.598,-17.089 14.606,-18.036l503.847,-52.951c9.008,-0.947 17.09,5.597 18.037,14.605Zm-471.515,154.923l-2.97,-28.255l21.762,-2.287c17.51,-1.841 27.789,-12.914 26.328,-26.818c-1.479,-14.071 -13.813,-22.542 -31.323,-20.702l-34.895,3.667l7.965,75.775l13.133,-1.38Zm-6.844,-65.11l21.199,-2.228c10.318,-1.084 16.295,4.047 17.07,11.417c0.763,7.26 -4.005,13.632 -14.323,14.716l-21.199,2.228l-2.747,-26.133Zm133.318,41.035l-48.34,5.08l-6.849,-65.165l-13.195,1.387l7.971,75.83l61.534,-6.467l-1.121,-10.665Zm46.338,7.042c21.762,-2.287 34.471,-14.914 32.645,-32.28l-5.088,-48.413l-13.008,1.367l5.036,47.91c1.168,11.112 -6.909,19.075 -20.73,20.527c-13.82,1.453 -23.439,-4.65 -24.607,-15.762l-5.037,-47.91l-13.007,1.367l5.089,48.413c1.826,17.366 16.945,27.068 38.707,24.781Zm96.14,-10.104c26.015,-2.734 39.399,-20.964 37.327,-40.676c-0.153,-1.452 -0.368,-2.897 -0.714,-4.385l-42.899,4.509l1.115,10.609l29.267,-3.076c-0.609,10.452 -8.942,20.192 -25.264,21.907c-17.51,1.84 -31.494,-8.489 -33.202,-24.739c-1.702,-16.193 9.573,-29.234 27.02,-31.068c11.194,-1.176 19.502,2.072 27.386,9.712l9.524,-7.437c-9.063,-9.831 -22.632,-15.01 -38.078,-13.387c-24.576,2.583 -41.871,21.507 -39.547,43.619c2.33,22.169 23.426,37.002 48.065,34.412Zm63.038,-84.422l-13.132,1.38l7.971,75.831l13.132,-1.38l-7.971,-75.831Zm44.14,72.029l-6.016,-57.235l57.608,51.813l13.257,-1.393l-7.971,-75.83l-13.132,1.38l6.075,57.794l-57.792,-52.359l-13.132,1.38l7.971,75.83l13.132,-1.38Z" style="fill:#202020;"/></g></g></svg>